<svg xmlns="http://www.w3.org/2000/svg" viewBox="0 0 306.12 330.26"><defs><style>.cls-1{fill:#fff;}.cls-2{fill:none;stroke:#a0a0a0;stroke-miterlimit:10;}.cls-3{font-size:60px;font-family:ProximaSoft-Black, Proxima Soft;font-weight:800;}</style></defs><g id="Layer_1" data-name="Layer 1"><circle class="cls-1" cx="150.12" cy="158.76" r="128"/><line class="cls-2" x1="252.65" y1="55.53" x2="236.39" y2="71.79"/><line class="cls-2" x1="253.36" y1="261.3" x2="237.09" y2="245.03"/><line class="cls-2" x1="47.59" y1="262" x2="63.85" y2="245.74"/><line class="cls-2" x1="46.88" y1="56.23" x2="63.15" y2="72.5"/><rect class="cls-1" x="1.62" y="131.26" width="58" height="52"/><rect class="cls-1" x="248.12" y="131.76" width="58" height="52"/><rect class="cls-1" x="120.12" y="8.76" width="58" height="52"/><rect class="cls-1" x="120.12" y="256.76" width="58" height="52"/></g><g id="Layer_1_copy" data-name="Layer 1 copy"><line class="cls-2" x1="252.65" y1="55.53" x2="236.39" y2="71.79"/><line class="cls-2" x1="253.36" y1="261.3" x2="237.09" y2="245.03"/><line class="cls-2" x1="47.59" y1="262" x2="63.85" y2="245.74"/><line class="cls-2" x1="46.88" y1="56.23" x2="63.15" y2="72.5"/><path class="cls-2" d="M178,274.92A128.15,128.15,0,0,0,275.55,175" transform="translate(0.12 8.76)"/><path class="cls-2" d="M24.35,174.5a128.18,128.18,0,0,0,95.65,100" transform="translate(0.12 8.76)"/><path class="cls-2" d="M120,25.54a128.19,128.19,0,0,0-95,97" transform="translate(0.12 8.76)"/><path class="cls-2" d="M275.14,123A128.16,128.16,0,0,0,178,25.08" transform="translate(0.12 8.76)"/></g><g id="Layer_2" data-name="Layer 2"><text class="cls-3" transform="translate(127.12 49.98)">N</text><text class="cls-3" transform="translate(131.23 306.98)">S</text><text class="cls-3" transform="translate(261.74 176.98)">E</text><text class="cls-3" transform="translate(0 176.98)">W</text></g></svg>